<svg width="87" height="25" viewBox="0 0 87 25" fill="none" xmlns="http://www.w3.org/2000/svg">
<path d="M0.545455 3.22727V0.727272H18V3.22727H10.6818V24H7.86364V3.22727H0.545455ZM24.7472 24.4091C23.6411 24.4091 22.6373 24.2008 21.7358 23.7841C20.8343 23.3598 20.1184 22.75 19.5881 21.9545C19.0578 21.1515 18.7926 20.1818 18.7926 19.0455C18.7926 18.0455 18.9896 17.2348 19.3835 16.6136C19.7775 15.9848 20.304 15.4924 20.9631 15.1364C21.6222 14.7803 22.3494 14.5152 23.1449 14.3409C23.9479 14.1591 24.7547 14.0152 25.5653 13.9091C26.6259 13.7727 27.4858 13.6705 28.1449 13.6023C28.8116 13.5265 29.2964 13.4015 29.5994 13.2273C29.91 13.053 30.0653 12.75 30.0653 12.3182V12.2273C30.0653 11.1061 29.7585 10.2348 29.1449 9.61364C28.5388 8.99242 27.6184 8.68182 26.3835 8.68182C25.1032 8.68182 24.0994 8.96212 23.3722 9.52273C22.6449 10.0833 22.1335 10.6818 21.8381 11.3182L19.2926 10.4091C19.7472 9.34848 20.3532 8.52273 21.1108 7.93182C21.8759 7.33333 22.7093 6.91667 23.6108 6.68182C24.5199 6.43939 25.4138 6.31818 26.2926 6.31818C26.8532 6.31818 27.4972 6.38636 28.2244 6.52273C28.9593 6.65151 29.6676 6.92045 30.3494 7.32954C31.0388 7.73864 31.6108 8.35606 32.0653 9.18182C32.5199 10.0076 32.7472 11.1136 32.7472 12.5V24H30.0653V21.6364H29.929C29.7472 22.0152 29.4441 22.4205 29.0199 22.8523C28.5956 23.2841 28.0313 23.6515 27.3267 23.9545C26.6222 24.2576 25.7623 24.4091 24.7472 24.4091ZM25.1562 22C26.2169 22 27.1108 21.7917 27.8381 21.375C28.5729 20.9583 29.1259 20.4205 29.4972 19.7614C29.8759 19.1023 30.0653 18.4091 30.0653 17.6818V15.2273C29.9517 15.3636 29.7017 15.4886 29.3153 15.6023C28.9366 15.7083 28.4972 15.803 27.9972 15.8864C27.5047 15.9621 27.0237 16.0303 26.554 16.0909C26.0919 16.1439 25.7169 16.1894 25.429 16.2273C24.732 16.3182 24.0805 16.4659 23.4744 16.6705C22.8759 16.8674 22.3911 17.1667 22.0199 17.5682C21.6563 17.9621 21.4744 18.5 21.4744 19.1818C21.4744 20.1136 21.8191 20.8182 22.5085 21.2955C23.2055 21.7652 24.0881 22 25.1562 22ZM50.0057 10.4545L47.5966 11.1364C47.4451 10.7348 47.2216 10.3447 46.9261 9.96591C46.6383 9.57955 46.2443 9.26136 45.7443 9.01136C45.2443 8.76136 44.6042 8.63636 43.8239 8.63636C42.7557 8.63636 41.8655 8.88258 41.1534 9.375C40.4489 9.85985 40.0966 10.4773 40.0966 11.2273C40.0966 11.8939 40.339 12.4205 40.8239 12.8068C41.3087 13.1932 42.0663 13.5152 43.0966 13.7727L45.6875 14.4091C47.2481 14.7879 48.411 15.3674 49.1761 16.1477C49.9413 16.9205 50.3239 17.9167 50.3239 19.1364C50.3239 20.1364 50.036 21.0303 49.4602 21.8182C48.892 22.6061 48.0966 23.2273 47.0739 23.6818C46.0511 24.1364 44.8617 24.3636 43.5057 24.3636C41.7254 24.3636 40.2519 23.9773 39.0852 23.2045C37.9186 22.4318 37.1799 21.303 36.8693 19.8182L39.4148 19.1818C39.6572 20.1212 40.1155 20.8258 40.7898 21.2955C41.4716 21.7652 42.3617 22 43.4602 22C44.7102 22 45.7027 21.7348 46.4375 21.2045C47.1799 20.6667 47.5511 20.0227 47.5511 19.2727C47.5511 18.6667 47.339 18.1591 46.9148 17.75C46.4905 17.3333 45.839 17.0227 44.9602 16.8182L42.0511 16.1364C40.4527 15.7576 39.2784 15.1705 38.5284 14.375C37.786 13.572 37.4148 12.5682 37.4148 11.3636C37.4148 10.3788 37.6913 9.50758 38.2443 8.75C38.8049 7.99242 39.5663 7.39773 40.5284 6.96591C41.4981 6.53409 42.5966 6.31818 43.8239 6.31818C45.5511 6.31818 46.9072 6.69697 47.892 7.45454C48.8845 8.21212 49.589 9.21212 50.0057 10.4545ZM56.8608 17.6364L56.8153 14.3182H57.3608L64.9972 6.54545H68.3153L60.179 14.7727H59.9517L56.8608 17.6364ZM54.3608 24V0.727272H57.0426V24H54.3608ZM65.4517 24L58.6335 15.3636L60.5426 13.5L68.8608 24H65.4517ZM78.1392 24.3636C76.5634 24.3636 75.1809 23.9886 73.9915 23.2386C72.8097 22.4886 71.8854 21.4394 71.2188 20.0909C70.5597 18.7424 70.2301 17.1667 70.2301 15.3636C70.2301 13.5455 70.5597 11.9583 71.2188 10.6023C71.8854 9.24621 72.8097 8.19318 73.9915 7.44318C75.1809 6.69318 76.5634 6.31818 78.1392 6.31818C79.715 6.31818 81.0938 6.69318 82.2756 7.44318C83.465 8.19318 84.3892 9.24621 85.0483 10.6023C85.715 11.9583 86.0483 13.5455 86.0483 15.3636C86.0483 17.1667 85.715 18.7424 85.0483 20.0909C84.3892 21.4394 83.465 22.4886 82.2756 23.2386C81.0938 23.9886 79.715 24.3636 78.1392 24.3636ZM78.1392 21.9545C79.3362 21.9545 80.321 21.6477 81.0938 21.0341C81.8665 20.4205 82.4384 19.6136 82.8097 18.6136C83.1809 17.6136 83.3665 16.5303 83.3665 15.3636C83.3665 14.197 83.1809 13.1098 82.8097 12.1023C82.4384 11.0947 81.8665 10.2803 81.0938 9.65909C80.321 9.03788 79.3362 8.72727 78.1392 8.72727C76.9422 8.72727 75.9574 9.03788 75.1847 9.65909C74.4119 10.2803 73.84 11.0947 73.4688 12.1023C73.0975 13.1098 72.9119 14.197 72.9119 15.3636C72.9119 16.5303 73.0975 17.6136 73.4688 18.6136C73.84 19.6136 74.4119 20.4205 75.1847 21.0341C75.9574 21.6477 76.9422 21.9545 78.1392 21.9545Z" fill="#7173D6"/>
</svg>
